Coordinates
version=1
nRows=14
nColumns=40
inDegrees=yes

Units are S.I. units (second, meters, Newtons, ...)
If the header above contains a line with 'inDegrees', this indicates whether rotational values are in degrees (yes) or radians (no).

endheader
time	pelvis_tilt	pelvis_list	pelvis_rotation	pelvis_tx	pelvis_ty	pelvis_tz	hip_flexion_r	hip_adduction_r	hip_rotation_r	knee_angle_r	knee_angle_r_beta	ankle_angle_r	subtalar_angle_r	mtp_angle_r	hip_flexion_l	hip_adduction_l	hip_rotation_l	knee_angle_l	knee_angle_l_beta	ankle_angle_l	subtalar_angle_l	mtp_angle_l	lumbar_extension	lumbar_bending	lumbar_rotation	arm_flex_r	arm_add_r	arm_rot_r	elbow_flex_r	pro_sup_r	wrist_flex_r	wrist_dev_r	arm_flex_l	arm_add_l	arm_rot_l	elbow_flex_l	pro_sup_l	wrist_flex_l	wrist_dev_l
      6.10000000	      6.40227273	     -4.14944715	     -1.61674621	     -0.32232823	      0.85522552	     -1.03858375	     52.94054794	      1.62484797	      0.65198449	     10.83177779	      0.18905019	      0.87527153	      0.00000000	      0.00000000	     22.73119213	     -2.73709695	     -7.44231924	     58.45898062	      1.02030169	     19.31631981	      0.00000000	      0.00000000	    -18.54486688	      4.00830263	      3.91775648	     13.36058050	    -10.26579011	      3.72902423	     10.07765572	     81.61670613	      0.00000000	      0.00000000	      3.41133124	    -10.99614705	     16.34339863	     21.33787132	     84.16833563	      0.00000000	      0.00000000
      6.10500000	      6.54876313	     -4.25070172	     -1.66273093	     -0.32232233	      0.85604174	     -1.03833651	     52.78521504	      1.75873605	      0.56506332	     10.81678831	      0.18878857	      0.84632151	      0.00000000	      0.00000000	     22.47118550	     -2.93352559	     -7.56557571	     58.30041411	      1.01753418	     19.22231427	      0.00000000	      0.00000000	    -18.68629299	      4.07368396	      3.95579852	     13.27485481	    -10.29263296	      4.17584143	     10.08596204	     80.74138488	      0.00000000	      0.00000000	      3.45800946	    -11.08314717	     16.70735394	     21.26630527	     84.46218103	      0.00000000	      0.00000000
      6.11000000	      6.51289424	     -4.23075997	     -1.63265713	     -0.32220761	      0.85645896	     -1.03827209	     52.82384613	      1.73640849	      0.69567774	     10.78683171	      0.18826573	      0.82309130	      0.00000000	      0.00000000	     22.42374262	     -2.97400188	     -7.68374281	     58.15318050	      1.01496447	     19.10308511	      0.00000000	      0.00000000	    -18.61873449	      4.04010976	      3.86308456	     13.20603136	    -10.25578745	      3.55794079	     10.05368435	     81.79881406	      0.00000000	      0.00000000	      3.43040327	    -11.08483164	     16.50668556	     21.23883737	     84.09338342	      0.00000000	      0.00000000
      6.11500000	      6.43923923	     -4.10264963	     -1.55691805	     -0.32202931	      0.85668335	     -1.03838981	     52.94080771	      1.60588502	      0.84720525	     10.80917084	      0.18865562	      0.77235839	      0.00000000	      0.00000000	     22.43863605	     -2.84941064	     -7.75519365	     58.02673103	      1.01275751	     19.07704990	      0.00000000	      0.00000000	    -18.44093919	      3.92403331	      3.69707114	     13.00385282	    -10.28380852	      4.44351913	     10.19098545	     79.99518864	      0.00000000	      0.00000000	      3.41934878	    -11.21924586	     16.99878817	     21.19898570	     84.54042569	      0.00000000	      0.00000000
      6.12000000	      6.46756901	     -4.06619687	     -1.43833198	     -0.32214130	      0.85722695	     -1.03842938	     52.94544009	      1.49094549	      0.76179269	     10.82049843	      0.18885332	      0.77444914	      0.00000000	      0.00000000	     22.35920787	     -2.80786591	     -7.74196455	     57.84956376	      1.00966536	     18.88253703	      0.00000000	      0.00000000	    -18.46878773	      3.89712323	      3.50822518	     13.02560890	    -10.22924368	      3.59862117	     10.09885182	     81.39217396	      0.00000000	      0.00000000	      3.42465382	    -11.18384342	     16.53737278	     21.17269362	     84.22060195	      0.00000000	      0.00000000
      6.12500000	      6.46513598	     -4.11447012	     -1.45557526	     -0.32171408	      0.85770745	     -1.03842137	     52.95709987	      1.52421060	      0.69558373	     10.88357291	      0.18995418	      1.04882457	      0.00000000	      0.00000000	     22.25343417	     -2.91024638	     -7.84208754	     57.75016588	      1.00793054	     18.85196151	      0.00000000	      0.00000000	    -18.38549346	      3.94425619	      3.50189446	     12.85207897	    -10.30921642	      4.00197720	     10.12595925	     81.60411521	      0.00000000	      0.00000000	      3.41186869	    -11.27541632	     17.19020075	     21.17102418	     83.95244637	      0.00000000	      0.00000000
      6.13000000	      6.50402434	     -4.16008082	     -1.39583399	     -0.32156566	      0.85826230	     -1.03840335	     52.89562389	      1.53442056	      0.63440477	     10.85245433	      0.18941106	      0.94029157	      0.00000000	      0.00000000	     22.12795107	     -2.99535318	     -7.90464549	     57.61888758	      1.00563930	     18.77140263	      0.00000000	      0.00000000	    -18.37920407	      3.98460390	      3.36550271	     12.80067028	    -10.32730396	      4.39389888	     10.17366265	     81.07947125	      0.00000000	      0.00000000	      3.40264072	    -11.31057770	     17.10519519	     21.14125382	     84.11320508	      0.00000000	      0.00000000
      6.13500000	      6.63128592	     -4.10709204	     -1.24678700	     -0.32182696	      0.85894009	     -1.03848100	     52.71812217	      1.41972285	      0.83272845	     10.67629325	      0.18633647	      0.73295395	      0.00000000	      0.00000000	     21.95133883	     -2.89645578	     -7.81358252	     57.43801976	      1.00248256	     18.62336761	      0.00000000	      0.00000000	    -18.53862534	      3.93941926	      3.17954849	     12.85735450	    -10.24763726	      3.48516882	     10.12340019	     81.52107260	      0.00000000	      0.00000000	      3.46585893	    -11.25787439	     16.41146755	     21.17059892	     84.18160539	      0.00000000	      0.00000000
      6.14000000	      6.55863060	     -4.01472968	     -1.30118896	     -0.32144901	      0.85923791	     -1.03853549	     52.85545550	      1.39961101	      0.93948764	     10.77327841	      0.18802918	      0.81086773	      0.00000000	      0.00000000	     21.90298849	     -2.83455970	     -7.97825612	     57.26706683	      0.99949887	     18.58275317	      0.00000000	      0.00000000	    -18.37361114	      3.84196902	      3.11962654	     12.73265733	    -10.28580157	      4.11202594	     10.17578411	     80.41867006	      0.00000000	      0.00000000	      3.41898685	    -11.28765886	     16.42744910	     21.16949436	     84.49284302	      0.00000000	      0.00000000
      6.14500000	      6.54383308	     -3.92555804	     -1.24173872	     -0.32135243	      0.85972278	     -1.03861098	     52.86447623	      1.29445561	      0.88941463	     10.69232914	      0.18661635	      0.91641826	      0.00000000	      0.00000000	     21.83637219	     -2.71625595	     -7.99187865	     57.08865796	      0.99638505	     18.47983481	      0.00000000	      0.00000000	    -18.33506109	      3.75903795	      2.91711300	     12.70204402	    -10.24059782	      3.88503062	     10.23845559	     80.29997040	      0.00000000	      0.00000000	      3.37833151	    -11.29698190	     15.99267271	     21.17504942	     84.48634719	      0.00000000	      0.00000000
      6.15000000	      6.61621648	     -3.95825509	     -1.15359863	     -0.32123928	      0.86036364	     -1.03867525	     52.81014716	      1.23890957	      0.82147770	     10.76734958	      0.18792570	      1.06610268	      0.00000000	      0.00000000	     21.67168289	     -2.74011392	     -7.95111189	     56.94245051	      0.99383325	     18.41743595	      0.00000000	      0.00000000	    -18.38278501	      3.78938074	      2.86797413	     12.63611714	    -10.28411715	      3.11637522	     10.29113841	     81.86468583	      0.00000000	      0.00000000	      3.46574001	    -11.23990464	     15.87760144	     21.16384151	     83.99936749	      0.00000000	      0.00000000
      6.15500000	      6.62557266	     -3.96809748	     -1.14406254	     -0.32100406	      0.86083516	     -1.03861509	     52.79568794	      1.27384079	      0.95163233	     10.73000536	      0.18727392	      0.90300869	      0.00000000	      0.00000000	     21.56885443	     -2.79458234	     -8.04067787	     56.79781727	      0.99130892	     18.33283868	      0.00000000	      0.00000000	    -18.33722824	      3.79111023	      2.79681953	     12.61026887	    -10.30286740	      3.40071460	     10.25317047	     81.86120742	      0.00000000	      0.00000000	      3.45561581	    -11.30160524	     15.89813882	     21.27043456	     83.89038592	      0.00000000	      0.00000000
      6.16000000	      6.70005734	     -4.11431339	     -1.02979505	     -0.32072060	      0.86145112	     -1.03864022	     52.69831879	      1.31351523	      0.75102760	     10.72019712	      0.18710274	      1.00622315	      0.00000000	      0.00000000	     21.43725925	     -2.94724315	     -7.96593576	     56.72523871	      0.99004218	     18.24129008	      0.00000000	      0.00000000	    -18.33979235	      3.96435494	      2.67975013	     12.52615450	    -10.38214465	      4.12084808	     10.32050747	     81.45443806	      0.00000000	      0.00000000	      3.54980528	    -11.39056509	     16.51274290	     21.19232126	     83.85183730	      0.00000000	      0.00000000
      6.16500000	      6.70507132	     -4.05410065	     -1.04534791	     -0.32065521	      0.86194563	     -1.03862942	     52.65375339	      1.29659490	      1.07025148	     10.60100900	      0.18502251	      1.02498991	      0.00000000	      0.00000000	     21.35054702	     -2.90217515	     -8.06190845	     56.57256233	      0.98737748	     18.09896688	      0.00000000	      0.00000000	    -18.31172426	      3.88391740	      2.63741213	     12.46364823	    -10.37156000	      4.40532724	     10.44131484	     79.77266285	      0.00000000	      0.00000000	      3.61612728	    -11.45398159	     16.67270059	     21.24260340	     83.88057455	      0.00000000	      0.00000000
